<svg xmlns="http://www.w3.org/2000/svg" viewBox="0 0 78.5 31.69"><defs><style>.cls-1{fill:#d3d1bf;}</style></defs><title>logo intro SVG</title><g id="Capa_2" data-name="Capa 2"><g id="_1" data-name="1"><path class="cls-1" d="M70,6.92a9,9,0,0,0-7,3c-1.16-1.72-3.12-3-6.38-3A6.25,6.25,0,0,0,50.79,10V7.48H42.11a10.4,10.4,0,0,1,2.5,6.94C44.07,11,42,6.92,36.1,6.92a8,8,0,0,0-6.47,3V0H20.41V11C18.69,8.24,15,6.92,11.55,6.92,5.54,6.92.7,9.52.7,14.79c0,4.89,3.21,6.38,7.87,7.36,2.37.51,4.33.61,4.33,1.86,0,.79-.79,1.35-2.19,1.35A2.61,2.61,0,0,1,8,23.73L0,26.2c1,4.19,6.33,5.49,10.9,5.49,4.23,0,7.56-1,9.51-3v2.38h9.22V19.21c0-1.86.88-3.26,2.93-3.26s3,1.4,3,3.26V31.08H50.79V18.37a2.31,2.31,0,1,1,4.61,0V31.08h9.22V18.37a2.33,2.33,0,1,1,4.66,0V31.08H78.5V16.32C78.5,12.88,77.15,6.92,70,6.92Zm-47.71,16c-.37-4-3.88-5.54-9.51-6.73-1.91-.37-3.26-.56-3.26-1.68,0-.84.79-1.4,2.1-1.4A2.27,2.27,0,0,1,14,14.6L20.41,13v4.59a5.57,5.57,0,0,1,1.94,4.51Q22.35,22.53,22.32,22.91Z"/></g></g></svg>